<svg width="46" height="46" viewBox="0 0 46 46" fill="none" xmlns="http://www.w3.org/2000/svg">
<g clip-path="url(#clip0_2034_64)">
<path d="M39.2634 6.73664C34.9193 2.39242 29.1435 6.10352e-05 23 6.10352e-05C16.8565 6.10352e-05 11.0806 2.39242 6.73657 6.73664C2.39245 11.0807 0 16.8565 0 23C0 29.1435 2.39245 34.9194 6.73657 39.2634C11.0807 43.6075 16.8565 45.9999 23 45.9999C29.1434 45.9999 34.9194 43.6075 39.2633 39.2633C43.6076 34.9193 46 29.1434 46 23C46 16.8565 43.6076 11.0807 39.2634 6.73664ZM44.6089 22.1756H38.3574C38.0606 16.5839 34.7632 11.7753 30.0499 9.33411L32.8567 3.75373C39.6086 7.22565 44.3064 14.1478 44.6089 22.1756ZM23 1.37386C26.0603 1.37386 28.9734 2.01427 31.6145 3.16571L28.802 8.75767C27.0107 8.02526 25.0519 7.62034 23 7.62034C17.1733 7.62034 12.093 10.8774 9.48409 15.6667L3.4801 13.6957C6.96451 6.4149 14.4044 1.37386 23 1.37386ZM9.27879 25.8234C9.20279 25.4517 8.84 25.2127 8.46813 25.2882C8.09645 25.3642 7.85675 25.7272 7.93284 26.099C8.63264 29.5189 10.5092 32.633 13.2168 34.8675C15.7846 36.9866 18.9914 38.2147 22.3131 38.3641V44.6142C10.7051 44.25 1.3738 34.6948 1.3738 23C1.3738 20.1598 1.92526 17.4463 2.92486 14.9594L8.87728 16.9134C8.06932 18.7811 7.62037 20.839 7.62037 23C7.62037 23.3794 7.9279 23.6869 8.30731 23.6869C8.68672 23.6869 8.99426 23.3795 8.99426 23C8.99426 15.2772 15.2773 8.99414 23.0001 8.99414C30.7229 8.99414 37.0058 15.2772 37.0058 23C37.0058 30.7228 30.7228 37.0058 23 37.0058C16.3753 37.0058 10.6047 32.3029 9.27879 25.8234ZM23.6869 44.6141V38.3635C31.6677 38.0109 38.0864 31.5479 38.3688 23.5495H44.6192C44.3323 34.9927 35.1126 44.2557 23.6869 44.6141Z" fill="white"/>
<path d="M17.1012 19.9046H14.3537C13.9744 19.9046 13.6667 20.212 13.6667 20.5915V27.6623C13.6667 28.0416 13.9743 28.3492 14.3537 28.3492H17.1012C17.4805 28.3492 17.7882 28.0418 17.7882 27.6623V20.5915C17.7882 20.212 17.4805 19.9046 17.1012 19.9046ZM16.4143 26.9752H15.0405V21.2783H16.4143V26.9752Z" fill="white"/>
<path d="M32.2123 21.755H29.4649C29.0855 21.755 28.778 22.0624 28.778 22.4419V27.6622C28.778 28.0416 29.0855 28.3492 29.4649 28.3492H32.2123C32.5917 28.3492 32.8993 28.0417 32.8993 27.6622V22.4419C32.8993 22.0624 32.5918 21.755 32.2123 21.755ZM31.5255 26.9753H30.1518V23.1289H31.5255V26.9753Z" fill="white"/>
<path d="M27.3517 19.9046H24.6042C24.2247 19.9046 23.9172 20.212 23.9172 20.5915V27.6623C23.9172 28.0416 24.2247 28.3492 24.6042 28.3492H27.3517C27.7311 28.3492 28.0386 28.0418 28.0386 27.6623V20.5915C28.0386 20.212 27.7311 19.9046 27.3517 19.9046ZM26.6647 26.9752H25.291V21.2783H26.6647V26.9752Z" fill="white"/>
<path d="M22.1841 16.5347H19.4366C19.0573 16.5347 18.7497 16.8421 18.7497 17.2216V27.6621C18.7497 28.0415 19.0572 28.3491 19.4366 28.3491H22.1841C22.5634 28.3491 22.8711 28.0417 22.8711 27.6622V17.2216C22.871 16.8422 22.5634 16.5347 22.1841 16.5347ZM21.4972 26.9752H20.1235V17.9086H21.4972V26.9752Z" fill="white"/>
</g>
<defs>
<clipPath id="clip0_2034_64">
<rect width="46" height="46" fill="white"/>
</clipPath>
</defs>
</svg>
