<svg width="56" height="56" viewBox="0 0 56 56" fill="none" xmlns="http://www.w3.org/2000/svg">
<g clip-path="url(#clip0_2034_107)">
<path d="M35.5878 45.4288C44.0785 45.4288 50.9861 38.5212 50.9861 30.0305C50.9861 21.5398 44.0785 14.6321 35.5878 14.6321C27.0971 14.6321 20.1894 21.5397 20.1894 30.0305C20.1894 38.5213 27.0971 45.4288 35.5878 45.4288ZM24.1228 29.2055H21.8646C22.0532 26.0348 23.3211 23.1503 25.3053 20.9146L26.8975 22.5067C27.0585 22.6679 27.2697 22.7484 27.4808 22.7484C27.6918 22.7484 27.903 22.6679 28.064 22.5067C28.3862 22.1846 28.3862 21.6622 28.064 21.3402L26.4719 19.748C28.7076 17.7637 31.5921 16.4959 34.7628 16.3073V18.5654C34.7628 19.021 35.132 19.3903 35.5877 19.3903C36.0434 19.3903 36.4126 19.021 36.4126 18.5654V16.3073C39.5833 16.4959 42.4679 17.7637 44.7035 19.748L43.1113 21.3402C42.7891 21.6624 42.7891 22.1847 43.1113 22.5067C43.2724 22.6677 43.4836 22.7484 43.6947 22.7484C43.9057 22.7484 44.1169 22.6679 44.278 22.5067L45.8701 20.9146C47.8543 23.1503 49.1222 26.0347 49.3107 29.2054H47.0526C46.5969 29.2054 46.2277 29.5747 46.2277 30.0303C46.2277 30.4859 46.5969 30.8552 47.0526 30.8552H49.3107C49.1221 34.0259 47.8543 36.9104 45.87 39.146L44.2779 37.554C43.9557 37.2318 43.4334 37.2318 43.1113 37.554C42.7891 37.8761 42.7891 38.3985 43.1113 38.7205L44.7035 40.3127C42.4677 42.2969 39.5833 43.5648 36.4126 43.7534V41.4953C36.4126 41.0397 36.0434 40.6703 35.5877 40.6703C35.132 40.6703 34.7628 41.0397 34.7628 41.4953V43.7534C31.592 43.5648 28.7076 42.2969 26.4719 40.3127L28.064 38.7206C28.3862 38.3985 28.3862 37.8761 28.064 37.5541C27.7418 37.2318 27.2196 37.2319 26.8975 37.5541L25.3053 39.1461C23.3211 36.9104 22.0532 34.026 21.8646 30.8552H24.1228C24.5783 30.8552 24.9477 30.4859 24.9477 30.0303C24.9477 29.5748 24.5783 29.2055 24.1228 29.2055Z" fill="#B9C878"/>
<path d="M45.5899 45.9074C42.6 47.7951 39.1414 48.7928 35.5878 48.7928C25.2422 48.7928 16.8254 40.3761 16.8254 30.0304C16.8254 25.842 18.1749 21.8805 20.728 18.5741C21.0064 18.2135 20.9398 17.6955 20.5792 17.417C20.2186 17.1386 19.7006 17.2052 19.4221 17.5658C16.6439 21.1636 15.1756 25.4738 15.1756 30.0304C15.1756 41.2858 24.3325 50.4426 35.5878 50.4426C39.4536 50.4426 43.217 49.3567 46.4707 47.3024C46.856 47.0592 46.971 46.5498 46.7279 46.1645C46.4846 45.7793 45.9752 45.6644 45.5899 45.9074Z" fill="#B9C878"/>
<path d="M40.5627 10.2325V7.10555C40.5627 6.25183 39.8682 5.55737 39.0145 5.55737H32.1608C31.3071 5.55737 30.6126 6.25183 30.6126 7.10555V10.2316C27.3323 11.0534 24.2888 12.6839 21.7557 15.0191C21.4208 15.328 21.3995 15.8498 21.7083 16.1848C22.0171 16.5197 22.539 16.541 22.8739 16.2322C26.3463 13.031 30.8615 11.268 35.5877 11.268C45.9333 11.268 54.3501 19.6848 54.3501 30.0304C54.3501 35.3407 52.0847 40.4254 48.1347 43.9804C47.7962 44.2852 47.7687 44.8068 48.0734 45.1454C48.2362 45.3264 48.461 45.4184 48.6867 45.4184C48.8834 45.4184 49.0807 45.3486 49.2384 45.2067C53.5354 41.3392 55.9999 35.8076 55.9999 30.0303C56 20.4907 49.4213 12.4595 40.5627 10.2325ZM32.2625 9.88889V7.20718H38.913V9.89054C37.8305 9.71236 36.72 9.61821 35.5879 9.61821C34.4653 9.61821 33.3537 9.70972 32.2625 9.88889Z" fill="#B9C878"/>
<path d="M35.5878 30.6082C35.8973 30.6082 36.1666 30.4376 36.3077 30.1855L39.1533 27.3399C39.4754 27.0178 39.4754 26.4955 39.1533 26.1733C38.8311 25.8511 38.3089 25.8511 37.9865 26.1733L36.4126 27.7471V23.7299C36.4126 23.2744 36.0434 22.905 35.5877 22.905C35.132 22.905 34.7628 23.2744 34.7628 23.7299V29.7831C34.7629 30.2389 35.1322 30.6082 35.5878 30.6082Z" fill="#B9C878"/>
<path d="M12.1728 30.2166C12.1728 29.7611 11.8035 29.3917 11.3479 29.3917H0.824904C0.369337 29.3917 0 29.7611 0 30.2166C0 30.6722 0.369337 31.0415 0.824904 31.0415H11.3479C11.8035 31.0415 12.1728 30.6723 12.1728 30.2166Z" fill="#B9C878"/>
<path d="M4.11507 26.2375H12.4479C12.9035 26.2375 13.2728 25.8681 13.2728 25.4126C13.2728 24.957 12.9035 24.5876 12.4479 24.5876H4.11507C3.6595 24.5876 3.29016 24.957 3.29016 25.4126C3.29016 25.8681 3.65939 26.2375 4.11507 26.2375Z" fill="#B9C878"/>
<path d="M13.5477 19.7836H6.71382C6.25825 19.7836 5.88892 20.1529 5.88892 20.6085C5.88892 21.064 6.25825 21.4334 6.71382 21.4334H13.5477C14.0032 21.4334 14.3726 21.064 14.3726 20.6085C14.3726 20.1528 14.0032 19.7836 13.5477 19.7836Z" fill="#B9C878"/>
<path d="M13.2727 34.6484C13.2727 34.1928 12.9034 33.8235 12.4478 33.8235H4.11507C3.6595 33.8235 3.29016 34.1928 3.29016 34.6484C3.29016 35.104 3.6595 35.4733 4.11507 35.4733H12.4479C12.9034 35.4733 13.2727 35.104 13.2727 34.6484Z" fill="#B9C878"/>
<path d="M13.5477 38.6276H6.71382C6.25825 38.6276 5.88892 38.9969 5.88892 39.4525C5.88892 39.908 6.25825 40.2774 6.71382 40.2774H13.5477C14.0032 40.2774 14.3726 39.908 14.3726 39.4525C14.3726 38.9969 14.0032 38.6276 13.5477 38.6276Z" fill="#B9C878"/>
</g>
<defs>
<clipPath id="clip0_2034_107">
<rect width="56" height="56" fill="white"/>
</clipPath>
</defs>
</svg>
