<svg width="46" height="46" viewBox="0 0 46 46" fill="none" xmlns="http://www.w3.org/2000/svg">
<g clip-path="url(#clip0_2034_124)">
<path d="M22.7336 36.5432C22.4883 36.5432 22.2429 36.4493 22.0551 36.2634L9.73668 23.945C9.37635 23.5846 9.36102 23.0077 9.69835 22.6282L18.9309 12.2859C25.3844 4.73613 35.8934 -0.149458 45.057 0.00579209C45.5688 0.0172921 45.9809 0.429375 45.9924 0.941125C46.2051 10.1105 41.2639 20.6138 33.695 27.0806L23.3699 36.2998C23.1898 36.4627 22.9598 36.5432 22.7336 36.5432ZM11.7319 23.23L22.77 34.2681L32.4358 25.6393C39.3473 19.7321 43.9377 10.3175 44.0795 1.92054C35.6826 2.06046 26.2699 6.65088 20.3742 13.547L11.7319 23.23Z" fill="white"/>
<path d="M26.404 43.5582C26.312 43.5582 26.2181 43.5448 26.1299 43.5161C25.7849 43.4011 25.5013 43.1366 25.4514 42.7762L24.1366 33.6011C24.0618 33.0779 24.426 32.593 24.9493 32.5163C25.4725 32.4339 25.9574 32.8038 26.0341 33.329L27.0614 40.4973C30.4194 36.4819 32.2863 31.3912 32.2863 26.2009C32.2863 25.6719 32.7156 25.2426 33.2446 25.2426C33.7736 25.2426 34.2029 25.6719 34.2029 26.2009C34.2029 32.5508 31.6308 38.7666 27.1458 43.2496C26.9541 43.4413 26.6743 43.5582 26.404 43.5582Z" fill="white"/>
<path d="M12.5369 21.873C12.4928 21.873 12.4468 21.8711 12.4008 21.8635L3.22574 20.5486C2.86541 20.4969 2.56449 20.2458 2.45141 19.8989C2.33833 19.5539 2.43033 19.1725 2.68908 18.9175C7.23733 14.3693 13.4512 11.7971 19.8011 11.7971C20.3301 11.7971 20.7594 12.2265 20.7594 12.7555C20.7594 13.2845 20.3301 13.7138 19.8011 13.7138C14.5858 13.7138 9.46833 15.5979 5.49508 18.9367L12.673 19.966C13.1962 20.0426 13.5604 20.5256 13.4857 21.0508C13.4147 21.528 13.0046 21.873 12.5369 21.873Z" fill="white"/>
<path d="M32.8383 17.9516C31.6097 17.9516 30.383 17.4839 29.4496 16.5505C27.5828 14.6817 27.5828 11.6419 29.4496 9.77314C31.3183 7.90439 34.3582 7.90439 36.2269 9.77314C38.0938 11.6419 38.0938 14.6817 36.2269 16.5505C35.2916 17.4858 34.0649 17.9516 32.8383 17.9516ZM32.8383 10.2887C32.1023 10.2887 31.3643 10.5686 30.8047 11.1282C29.6853 12.2495 29.6853 14.0741 30.8047 15.1954C31.9259 16.3147 33.7506 16.3128 34.8718 15.1954C35.9912 14.0741 35.9912 12.2495 34.8718 11.1282C34.3103 10.5705 33.5743 10.2887 32.8383 10.2887Z" fill="white"/>
<path d="M0.958319 46C0.707236 46 0.463819 45.9023 0.279819 45.7202C0.0306524 45.471 -0.0613476 45.1049 0.0402357 44.7676C0.354569 43.7192 3.17015 34.454 5.22099 32.4032C7.53057 30.0936 11.2892 30.0917 13.5987 32.4032C15.9083 34.7128 15.9083 38.4714 13.5987 40.7809C11.5479 42.8318 2.28274 45.6474 1.23432 45.9617C1.14232 45.9866 1.05032 46 0.958319 46ZM9.41082 32.5853C8.38349 32.5853 7.35807 32.9763 6.57607 33.7564C5.47015 34.8642 3.63015 39.8111 2.41499 43.585C6.18699 42.3699 11.1358 40.5299 12.2417 39.4239C13.8038 37.8619 13.8038 35.3184 12.2417 33.7564C11.4617 32.9763 10.4362 32.5853 9.41082 32.5853Z" fill="white"/>
</g>
<defs>
<clipPath id="clip0_2034_124">
<rect width="46" height="46" fill="white"/>
</clipPath>
</defs>
</svg>
